Coordinates
version=1
nRows=17
nColumns=36
inDegrees=yes

Units are S.I. units (second, meters, Newtons, ...)
If the header above contains a line with 'inDegrees', this indicates whether rotational values are in degrees (yes) or radians (no).

endheader
time	pelvis_tilt	pelvis_list	pelvis_rotation	pelvis_tx	pelvis_ty	pelvis_tz	hip_flexion_r	hip_adduction_r	hip_rotation_r	knee_angle_r	knee_angle_r_beta	ankle_angle_r	subtalar_angle_r	mtp_angle_r	hip_flexion_l	hip_adduction_l	hip_rotation_l	knee_angle_l	knee_angle_l_beta	ankle_angle_l	subtalar_angle_l	mtp_angle_l	lumbar_extension	lumbar_bending	lumbar_rotation	arm_flex_r	arm_add_r	arm_rot_r	elbow_flex_r	pro_sup_r	arm_flex_l	arm_add_l	arm_rot_l	elbow_flex_l	pro_sup_l
      0.00000000	     -5.52457765	      0.25916278	      3.13175849	      0.17211802	      1.30068509	     -0.58481800	      7.12682160	      0.81434582	     -0.35965700	      8.20728053	      0.14324407	      1.84372919	    -12.88515488	     -6.65243247	     15.41393458	      1.32646519	      2.16843279	     16.49125015	      0.28782661	      3.44293594	    -11.16724369	     -6.65243247	     -4.06741982	     -1.70401548	      2.22285051	     -0.50385086	    -11.03089519	      4.80878912	     31.55425447	     88.84164722	     -5.02536352	    -10.66272919	     -1.27964999	     24.88816731	     87.03562568
      0.01666670	     -5.31410451	     -0.20024033	      2.59652183	      0.17215108	      1.29765776	     -0.58522238	      7.23566614	      1.51467829	     -0.37354692	      8.58100476	      0.14976679	      3.08414652	    -12.55838911	     -6.66452183	     15.03152153	      0.82120053	      2.07021857	     15.58975123	      0.27209249	      3.59293235	    -12.26372337	     -6.66452183	     -4.69729934	     -1.47647780	      3.10238590	     -1.81748056	    -11.40297698	      4.16128724	     33.76499628	     88.24733912	     -5.33058194	    -10.47010167	     -1.32716131	     25.68581070	     86.86208185
      0.03333330	     -4.70070256	      0.24739228	      2.83598182	      0.17557263	      1.30130993	     -0.59279765	      5.53633030	      1.03592595	     -0.68953393	      6.95172623	      0.12133051	      2.68371562	    -12.77694263	     -6.69099540	     13.16151102	      1.41520087	      3.01564980	     12.90908789	      0.22530609	      3.26126968	    -11.52774596	     -6.69099540	     -5.31340110	     -1.89621915	      3.30879355	     -2.40647844	    -11.35245386	      3.38957387	     33.88255433	     88.54317802	     -5.11574561	    -10.23514883	     -1.43466196	     26.05632462	     87.33975985
      0.05000000	     -4.72138857	      0.38031890	      3.13788505	      0.17573763	      1.30042999	     -0.59281113	      5.31811067	      0.79723939	     -1.79381329	      6.65637811	      0.11617571	      3.30008999	    -12.22333885	     -6.76457108	     12.71255086	      1.67109211	      3.65357116	     12.03300143	      0.21001549	      4.10462493	    -10.78604716	     -6.76457108	     -5.24633192	     -2.03249676	      2.93379475	     -3.04670173	    -11.06915011	      2.58787753	     34.45128111	     87.69658994	     -5.42087297	    -10.11520131	     -1.72259963	     26.72928397	     86.52154876
      0.06666670	     -4.80441730	      0.59946988	      3.01752668	      0.17566336	      1.30031156	     -0.59260838	      5.43222624	      0.53833363	     -2.20608013	      6.76633983	      0.11809491	      3.83412219	    -12.14643665	     -6.81045461	     12.51699676	      1.99537417	      4.03603491	     11.77863695	      0.20557600	      4.94765405	    -10.49320785	     -6.81045461	     -5.05036881	     -2.40366866	      2.91328221	     -3.32024753	    -10.74388471	      2.16349257	     34.50144483	     86.77679901	     -5.44045168	    -10.00809974	     -1.93991230	     26.91502749	     85.49762972
      0.08333330	     -4.89388053	      0.72390390	      2.88757604	      0.18426631	      1.30038644	     -0.59542527	      5.41016030	      0.30160294	     -2.47318199	      6.86974191	      0.11989962	      4.06819765	    -12.21596156	     -6.81318142	     12.18582888	      2.17375030	      4.25778822	     11.63023510	      0.20298590	      5.44639586	    -10.42632280	     -6.81318142	     -4.67524465	     -2.60973691	      2.89256104	     -3.65658870	    -10.51513126	      2.12508048	     34.42614190	     86.81376375	     -5.78003086	     -9.88670522	     -1.96732053	     26.83240013	     85.50939407
      0.10000000	     -5.55288931	      0.83026621	      2.67498214	      0.18481751	      1.29951354	     -0.59532437	      6.27395336	      0.10633734	     -2.80382116	      7.51336634	      0.13113298	      4.62507118	    -11.67597206	     -6.86821102	     12.71601460	      2.32941671	      4.23949753	     11.84308941	      0.20670090	      6.11605625	     -9.60193186	     -6.86821102	     -3.62384873	     -2.91285213	      2.79962517	     -4.06954680	    -10.08159986	      1.44465271	     34.35583375	     85.79583905	     -6.36795225	     -9.79038956	     -2.43508174	     26.86216971	     84.28361226
      0.11666670	     -6.30275330	      0.87965628	      2.38011966	      0.18515526	      1.29589637	     -0.59525383	      7.40229059	     -0.08095735	     -2.97381809	      8.24645770	      0.14392784	      4.88482151	    -11.64645085	     -6.93915072	     13.34629063	      2.40904836	      4.15154253	     12.08543913	      0.21093070	      6.55185248	     -9.17657750	     -6.93915072	     -2.63756275	     -3.11079435	      2.48045882	     -4.41548424	     -9.77190147	      1.28047629	     34.51470082	     84.82424389	     -6.66260770	     -9.84427658	     -2.47269624	     26.99950327	     83.21022121
      0.13333330	     -7.04116635	      0.98537759	      2.21557385	      0.19367511	      1.29213670	     -0.59838520	      8.31473650	     -0.36536112	     -3.09379145	      8.72656240	      0.15230725	      5.16260511	    -11.68629814	     -6.95429401	     13.80233943	      2.55630380	      4.03542081	     12.11982228	      0.21153080	      6.77077708	     -8.89254952	     -6.95429401	     -1.44985858	     -3.36671346	      2.01912089	     -4.89428108	     -9.51790738	      1.12956778	     34.50063314	     85.05843470	     -6.82521998	     -9.93896877	     -2.37200337	     26.62570584	     83.36612348
      0.15000000	     -7.64577727	      0.97705519	      2.10197566	      0.19456910	      1.29485705	     -0.59830207	      8.97272509	     -0.48411060	     -3.09902928	      9.01522156	      0.15734530	      5.35706197	    -11.77105454	     -6.96954233	     14.10640475	      2.58728531	      4.10328047	     12.12735078	      0.21166220	      6.92235867	     -8.57227912	     -6.96954233	     -0.45121077	     -3.47963144	      1.55708732	     -5.32321552	     -9.20430948	      0.91941759	     34.30341703	     85.30505994	     -6.67388587	    -10.03182119	     -2.12904599	     26.14653833	     83.57835661
      0.16666670	     -8.36048146	      0.92248577	      1.97550293	      0.18950433	      1.29432420	     -0.60313472	     10.16214388	     -0.61361733	     -3.13982058	      9.89594358	      0.17271680	      5.55933301	    -11.99098580	     -6.98794169	     14.83306647	      2.62196317	      4.09625930	     12.46775659	      0.21760340	      7.17482524	     -8.30508227	     -6.98794169	      0.49259184	     -3.52675478	      1.17994247	     -5.52157160	     -8.99077671	      0.84353279	     33.90475712	     85.61017760	     -6.25914627	    -10.07359547	     -1.55819187	     25.54727388	     83.88912037
      0.18333330	     -8.98082521	      0.87867202	      1.86083408	      0.18987125	      1.29395535	     -0.60314726	     11.24569657	     -0.72483730	     -3.16134178	     10.76940275	      0.18796154	      5.78535707	    -12.25896396	     -7.05212339	     15.53016198	      2.65776281	      4.10137015	     12.81049385	      0.22358530	      7.42689852	     -8.18575097	     -7.05212339	      1.30628701	     -3.55796178	      0.99469033	     -5.62239528	     -8.87001977	      1.07847490	     33.25699572	     85.18161197	     -5.66956814	    -10.15984006	     -0.13701830	     24.56092712	     83.51136651
      0.20000000	     -9.24305424	      0.78185263	      1.88168603	      0.18990900	      1.29337245	     -0.60350933	     11.77587004	     -0.76246182	     -3.28171926	     11.27871747	      0.19685076	      6.04051360	    -12.44641794	     -7.09546970	     15.79998357	      2.61516419	      4.09360870	     12.94964258	      0.22601390	      7.49462664	     -8.07095976	     -7.09546970	      1.49987091	     -3.58366774	      0.66190694	     -5.72221316	     -8.74002003	      1.07242197	     33.29094469	     84.41243790	     -5.17188641	    -10.25811483	      0.32295327	     24.34355626	     82.81269281
      0.21666670	     -9.58275238	      0.67129774	      1.92018970	      0.18998593	      1.29324588	     -0.60379108	     12.42961152	     -0.78547331	     -3.44891462	     11.84952413	      0.20681321	      6.23428582	    -12.61414787	     -7.14202014	     16.24640272	      2.55349691	      4.13205207	     13.10887934	      0.22879311	      7.46026755	     -8.02018269	     -7.14202014	      1.73082276	     -3.61010462	      0.32130939	     -5.91176631	     -8.59611029	      1.17185101	     33.27637246	     82.99846372	     -4.50813874	    -10.39902157	      0.93770951	     24.33879771	     81.54827457
      0.23333330	     -9.81642477	      0.53818903	      1.96657471	      0.19085213	      1.29579396	     -0.60393846	     13.04872231	     -0.77450340	     -3.51574946	     12.58737664	      0.21969117	      6.42442236	    -12.89175858	     -7.20524541	     16.47910237	      2.47561843	      4.23753543	     13.24589835	      0.23118454	      7.43052286	     -7.99900590	     -7.20524541	      1.80650637	     -3.56532276	     -0.04847912	     -5.86658851	     -8.44657239	      1.42768240	     32.99078360	     81.49526760	     -3.88085797	    -10.54396682	      1.61508698	     24.24975728	     80.24430871
      0.25000000	    -10.21019688	      0.46107007	      1.87037720	      0.19040229	      1.29227980	     -0.60433762	     14.06287123	     -0.84154029	     -3.68862643	     13.73847265	      0.23978158	      6.78995683	    -12.90502116	     -7.33021673	     17.00273027	      2.41494217	      4.16084391	     13.57145434	      0.23686656	      7.47344353	     -7.87076386	     -7.33021673	      2.22106599	     -3.60292419	      0.14911099	     -6.24008406	     -8.13318886	     -0.03125211	     32.97770519	     87.02881826	     -2.98888465	    -10.79698994	      2.48399377	     23.90277877	     85.53063658
      0.26666670	    -10.27908297	      0.34887563	      1.82487430	      0.19025759	      1.29179563	     -0.60479980	     14.77515506	     -0.86039596	     -3.70337826	     14.96096703	      0.26111813	      7.01626084	    -13.41242685	     -7.34976048	     17.20745818	      2.31760479	      4.16017277	     13.90535334	      0.24269420	      7.61431636	     -7.88118556	     -7.34976048	      2.08923510	     -3.60067623	      0.01673489	     -6.25280919	     -8.02349058	      0.09638922	     33.01064424	     85.38616677	     -2.42236673	    -10.88621031	      2.45506879	     24.29144976	     83.88190634
